<?xml version="1.0" encoding="utf-8"?>
<!-- Generator: Adobe Illustrator 27.2.0, SVG Export Plug-In . SVG Version: 6.00 Build 0)  -->
<svg version="1.1" id="Layer_1" xmlns="http://www.w3.org/2000/svg" xmlns:xlink="http://www.w3.org/1999/xlink" x="0px" y="0px"
	 viewBox="0 0 1159.5 451.4" style="enable-background:new 0 0 1159.5 451.4;" xml:space="preserve">
<style type="text/css">
	.st0{clip-path:url(#SVGID_00000177459512812366130140000004335434018818115226_);}
	.st1{clip-path:url(#SVGID_00000076567979393525256650000008417103249848680070_);}
</style>
<path d="M316.7,277.4c-5,0-8.8-1.4-11.5-4.1c-2.6-2.7-4-6.6-4-11.6v-72.1c0-5,1.3-8.8,4-11.5s6.3-4,11.1-4c4.9,0,8.6,1.3,11.2,4
	c2.6,2.6,3.9,6.5,3.9,11.5v11.6l-2.2-6.7c3.1-6.6,7.7-11.7,13.9-15.3c6.2-3.6,13.2-5.4,21-5.4c8,0,14.5,1.5,19.7,4.6
	c5.1,3,9,7.6,11.6,13.8c2.6,6.2,3.9,14,3.9,23.4v46.1c0,5-1.3,8.9-4,11.6c-2.6,2.7-6.5,4.1-11.5,4.1c-4.9,0-8.6-1.4-11.3-4.1
	c-2.6-2.7-4-6.6-4-11.6v-44.7c0-6.9-1.3-11.9-3.8-14.9c-2.5-3-6.3-4.6-11.5-4.6c-6.5,0-11.7,2-15.5,6.1s-5.8,9.5-5.8,16.2v41.8
	C331.9,272.2,326.8,277.4,316.7,277.4z"/>
<path d="M437.5,277.4c-5,0-8.8-1.4-11.5-4.1c-2.6-2.7-4-6.6-4-11.6v-72.1c0-5,1.3-8.8,4-11.5s6.3-4,11.1-4c4.9,0,8.6,1.3,11.2,4
	c2.6,2.6,3.9,6.5,3.9,11.5v11.6l-2.2-6.7c3.1-6.6,7.7-11.7,13.9-15.3c6.2-3.6,13.2-5.4,21-5.4c8,0,14.5,1.5,19.7,4.6
	c5.1,3,9,7.6,11.6,13.8c2.6,6.2,3.9,14,3.9,23.4v46.1c0,5-1.3,8.9-4,11.6c-2.6,2.7-6.5,4.1-11.5,4.1c-4.9,0-8.6-1.4-11.3-4.1
	c-2.6-2.7-4-6.6-4-11.6v-44.7c0-6.9-1.3-11.9-3.8-14.9c-2.5-3-6.3-4.6-11.5-4.6c-6.5,0-11.7,2-15.5,6.1s-5.8,9.5-5.8,16.2v41.8
	C452.7,272.2,447.6,277.4,437.5,277.4z"/>
<path d="M594.6,277.8c-11.8,0-21.9-2.1-30.3-6.4c-8.5-4.3-15-10.3-19.5-18.1c-4.5-7.8-6.8-16.9-6.8-27.5c0-10.3,2.2-19.3,6.5-27.1
	c4.3-7.8,10.4-13.9,18.2-18.3c7.8-4.4,16.6-6.6,26.5-6.6c7.2,0,13.7,1.2,19.5,3.6c5.8,2.4,10.8,5.8,15,10.1c4.2,4.4,7.4,9.7,9.5,16
	c2.2,6.3,3.2,13.3,3.2,21c0,2.6-0.8,4.5-2.4,5.8c-1.6,1.3-4,1.9-7.1,1.9h-63.7v-15.8h51.2l-3.2,2.8c0-5.5-0.8-10.2-2.4-13.9
	c-1.6-3.7-4-6.5-7-8.4c-3-1.9-6.8-2.8-11.3-2.8c-5,0-9.3,1.2-12.8,3.5c-3.5,2.3-6.2,5.6-8.1,9.9c-1.9,4.3-2.8,9.5-2.8,15.6v1.6
	c0,10.3,2.4,17.9,7.2,22.7c4.8,4.9,11.9,7.3,21.4,7.3c3.2,0,7-0.4,11.2-1.2c4.2-0.8,8.1-2.1,11.8-3.9c3.1-1.5,5.9-2,8.3-1.5
	c2.4,0.5,4.3,1.6,5.7,3.3c1.4,1.8,2.1,3.8,2.3,6.1c0.2,2.3-0.3,4.6-1.5,6.8s-3.2,4.1-6.1,5.6c-4.6,2.6-9.8,4.5-15.5,5.8
	C605.6,277.1,600,277.8,594.6,277.8z"/>
<path d="M702.8,277.8c-10.8,0-20.3-2.1-28.3-6.4c-8.1-4.3-14.2-10.3-18.6-18.2c-4.3-7.8-6.5-17.1-6.5-27.8c0-8,1.2-15.2,3.7-21.5
	c2.4-6.4,6-11.8,10.7-16.2c4.7-4.5,10.3-7.9,16.9-10.3c6.6-2.4,14-3.6,22.1-3.6c4.2,0,8.7,0.5,13.4,1.5c4.7,1,9.4,2.7,14,5.2
	c2.7,1.2,4.6,2.9,5.6,5.2c1,2.2,1.4,4.5,1.1,6.9c-0.3,2.4-1.1,4.5-2.5,6.3c-1.4,1.8-3.2,3-5.4,3.7c-2.2,0.6-4.6,0.2-7.3-1.1
	c-2.6-1.5-5.2-2.6-8-3.2c-2.8-0.7-5.4-1-7.8-1c-4.1,0-7.6,0.6-10.8,1.9c-3.1,1.3-5.7,3.1-7.8,5.5c-2.1,2.4-3.7,5.3-4.9,8.8
	c-1.2,3.5-1.7,7.6-1.7,12.2c0,8.9,2.2,15.9,6.6,21c4.4,5.1,10.6,7.6,18.6,7.6c2.4,0,5-0.3,7.7-0.9c2.7-0.6,5.4-1.7,8.1-3.1
	c2.7-1.4,5.1-1.7,7.3-1c2.2,0.7,3.9,1.9,5.2,3.8c1.3,1.8,2,3.9,2.2,6.3c0.2,2.4-0.2,4.7-1.2,6.9c-1,2.2-2.8,4-5.4,5.2
	c-4.6,2.3-9.2,4-13.8,5C711.3,277.3,706.9,277.8,702.8,277.8z"/>
<path d="M809.8,277.8c-9.3,0-17.2-1.6-23.4-4.7s-11-7.6-14-13.6c-3-6-4.6-13.5-4.6-22.5v-38.2h-8.5c-3.8,0-6.7-1-8.8-3
	s-3.1-4.8-3.1-8.3c0-3.8,1-6.7,3.1-8.6c2.1-2,5-2.9,8.8-2.9h8.5v-15.4c0-5.1,1.4-9,4.1-11.7c2.7-2.6,6.5-4,11.4-4
	c5,0,8.8,1.3,11.4,4c2.6,2.6,3.9,6.5,3.9,11.7v15.4h19.3c3.8,0,6.7,1,8.7,2.9c2,2,3,4.8,3,8.6c0,3.5-1,6.3-3,8.3c-2,2-4.9,3-8.7,3
	h-19.3v36.9c0,5.7,1.3,9.9,4,12.8s6.9,4.3,12.7,4.3c2,0,3.9-0.2,5.7-0.6c1.8-0.4,3.4-0.7,4.9-0.8c1.9-0.1,3.5,0.4,4.7,1.7
	c1.2,1.3,1.8,4.1,1.8,8.4c0,3.2-0.5,6.1-1.6,8.5c-1.1,2.4-3,4.2-5.7,5.3c-1.8,0.7-4.2,1.2-7.2,1.7
	C814.5,277.5,811.9,277.8,809.8,277.8z"/>
<path d="M860.1,157.6c-5.7,0-10-1.3-13.1-4s-4.6-6.4-4.6-11.3c0-5,1.5-8.8,4.6-11.5s7.4-4,13.1-4s10,1.3,13,4
	c3,2.6,4.5,6.5,4.5,11.5c0,4.9-1.5,8.6-4.5,11.3C870.1,156.3,865.8,157.6,860.1,157.6z M860.1,277.2c-5,0-8.8-1.5-11.5-4.4
	c-2.6-2.9-4-7-4-12.3v-69.4c0-5.4,1.3-9.6,4-12.5c2.6-2.9,6.5-4.4,11.5-4.4c4.9,0,8.6,1.5,11.3,4.4c2.6,2.9,4,7.1,4,12.5v69.4
	c0,5.3-1.3,9.4-3.9,12.3C868.9,275.7,865.1,277.2,860.1,277.2z"/>
<path d="M919.2,277.4c-5,0-8.8-1.4-11.5-4.1c-2.6-2.7-4-6.6-4-11.6v-62.9h-7.3c-3.8,0-6.7-1-8.8-3c-2.1-2-3.1-4.8-3.1-8.3
	c0-3.8,1-6.7,3.1-8.6c2.1-2,5-2.9,8.8-2.9h16.2l-8.9,8.1v-6.3c0-14.5,3.6-25.3,10.9-32.5c7.2-7.2,17.9-11.5,32-13l6.5-0.6
	c3.5-0.3,6.3,0.3,8.4,1.6c2.1,1.4,3.5,3.1,4.2,5.3c0.7,2.2,0.8,4.4,0.4,6.6c-0.4,2.2-1.3,4.2-2.7,5.9c-1.4,1.7-3.3,2.6-5.8,2.7
	l-2.8,0.2c-7.3,0.5-12.5,2.3-15.6,5.2c-3.1,2.9-4.7,7.3-4.7,13.3v6.9l-3.9-3.5h18.3c3.9,0,6.9,1,8.9,2.9c2,2,3,4.8,3,8.6
	c0,3.5-1,6.3-3,8.3c-2,2-5,3-8.9,3h-14.4v62.9C934.5,272.2,929.4,277.4,919.2,277.4z"/>
<path d="M1001.4,313.9c-3.5,0-6.4-0.9-8.7-2.8c-2.3-1.9-3.7-4.4-4.1-7.4c-0.4-3,0.1-6.3,1.6-9.6l13.6-30v12.6l-35.9-82.4
	c-1.4-3.5-1.8-6.8-1.3-9.8c0.5-3,2-5.5,4.5-7.3c2.5-1.8,6-2.7,10.5-2.7c3.7,0,6.6,0.8,8.8,2.5c2.2,1.7,4.3,4.9,6.2,9.6l24,60.9h-6.5
	l24.8-61.1c1.9-4.6,4-7.7,6.4-9.4c2.4-1.7,5.6-2.5,9.6-2.5c3.5,0,6.3,0.9,8.4,2.7c2.1,1.8,3.4,4.2,3.9,7.2c0.5,3-0.1,6.2-1.7,9.7
	l-47.7,108.2c-2,4.6-4.3,7.7-6.8,9.3C1008.3,313.1,1005.1,313.9,1001.4,313.9z"/>
<g>
	<g>
		<g>
			<defs>
				<path id="SVGID_1_" d="M211.6,277.8c-10.7,0-20-2.1-27.9-6.3c-7.9-4.2-14-10.2-18.4-18.1c-4.3-7.8-6.5-17.1-6.5-27.8
					c0-8,1.2-15.2,3.7-21.5c2.4-6.4,6-11.8,10.7-16.3c4.7-4.5,10.3-8,16.7-10.4c6.5-2.4,13.7-3.6,21.7-3.6c10.7,0,20,2.1,27.9,6.3
					c7.9,4.2,14.1,10.1,18.5,17.9c4.4,7.7,6.6,16.9,6.6,27.6c0,8.1-1.3,15.4-3.8,21.7c-2.5,6.4-6.1,11.8-10.7,16.4
					c-4.6,4.6-10.2,8.1-16.7,10.5C226.9,276.6,219.6,277.8,211.6,277.8z M211.6,254.8c4.5,0,8.3-1.1,11.6-3.2
					c3.2-2.2,5.8-5.4,7.7-9.6c1.9-4.3,2.8-9.7,2.8-16.3c0-9.9-2-17.2-6.1-21.8c-4.1-4.7-9.4-7-16-7c-4.3,0-8.2,1-11.5,3
					c-3.3,2-5.9,5.2-7.7,9.4c-1.8,4.3-2.7,9.7-2.7,16.3c0,9.9,2,17.2,6.1,22C199.9,252.4,205.2,254.8,211.6,254.8z"/>
			</defs>
			<clipPath id="SVGID_00000152263413784347425130000013202753649157649596_">
				<use xlink:href="#SVGID_1_"  style="overflow:visible;"/>
			</clipPath>
			<g style="clip-path:url(#SVGID_00000152263413784347425130000013202753649157649596_);">
			</g>
		</g>
	</g>
	<g>
		<g>
			<g>
				<defs>
					<path id="SVGID_00000060719087296318704080000012568976048542705075_" d="M203.8,347c-23.9,0-44.4-4.9-61.4-14.8
						c-17-9.8-30-23.9-39.1-42.1c-9.1-18.2-13.6-39.8-13.6-64.6c0-18.6,2.6-35.3,7.7-50.2c5.1-14.9,12.6-27.6,22.3-38.3
						c9.7-10.6,21.7-18.7,35.9-24.3c14.2-5.6,30.3-8.4,48.2-8.4c13.2,0,25.9,1.8,38.1,5.4c12.2,3.6,22.8,8.7,31.7,15.4
						c3.8,2.5,6.3,5.4,7.6,8.9c1.2,3.5,1.5,6.8,0.7,9.9c-0.8,3.1-2.3,5.8-4.5,7.9c-2.2,2.1-5.1,3.3-8.6,3.5c-3.5,0.2-7.2-1-11.2-3.7
						c-7.4-5.6-15.6-9.7-24.5-12.4c-9-2.7-18.3-4-28.2-4c-17,0-31.3,3.5-43,10.6c-11.6,7-20.5,17.3-26.5,30.7
						c-6,13.4-9.1,29.8-9.1,49c0,19.2,3,35.6,9.1,49.2c6,13.5,14.9,23.8,26.5,30.9c11.6,7,26,10.6,43,10.6c9.8,0,19.3-1.4,28.4-4.2
						c9.1-2.8,17.6-7,25.7-12.6c4-2.5,7.7-3.6,10.9-3.4c3.2,0.2,6,1.3,8.2,3.4c2.2,2,3.7,4.5,4.5,7.6c0.8,3,0.7,6.2-0.3,9.4
						c-1,3.2-3.2,6-6.5,8.2c-9.2,7.4-20,13-32.6,16.8C230.5,345.1,217.4,347,203.8,347z"/>
				</defs>
				<clipPath id="SVGID_00000131344188772157011180000008539479231767723962_">
					<use xlink:href="#SVGID_00000060719087296318704080000012568976048542705075_"  style="overflow:visible;"/>
				</clipPath>
				<g style="clip-path:url(#SVGID_00000131344188772157011180000008539479231767723962_);">
				</g>
			</g>
		</g>
	</g>
</g>
</svg>
